<?xml version="1.0" encoding="utf-8"?>
<!-- Generator: Adobe Illustrator 25.1.0, SVG Export Plug-In . SVG Version: 6.00 Build 0)  -->
<svg version="1.1" id="Layer_1" xmlns="http://www.w3.org/2000/svg" xmlns:xlink="http://www.w3.org/1999/xlink" x="0px" y="0px"
	 viewBox="0 0 96 96" style="enable-background:new 0 0 96 96;" xml:space="preserve">
<style type="text/css">
	.st0{fill:#FFFFFF;}
	.st1{fill:#010101;}
</style>
<g>
	<path class="st0" d="M81.7,53.9c-0.1-0.3,5.3-13,4-18.9c-1.3-5.9-8.4-14.7-8.4-14.7l-2.1-2.8l-1.6-5.3l-6.2-6.5l-12.9-4l-10,0.5
		L33.2,8.3L20.3,9.5l-5.7,4.4L10.1,25l3.6,12.7l1,5.9L15.6,59L12,69.2c0,0-0.5,9.9,1.2,11.8s9.9,9.5,9.9,9.5l12.9,4.9l6.2-1.4
		l14.3-5.4l4.8-4.2l5.6-8.1l5.4-1.3c0,0,10-2.6,11.2-7.1S84.4,60.7,81.7,53.9z"/>
	<g>
		<path class="st1" d="M40.5,57.3c-0.7,0.3-1.2,0.9-1.9,1.1c-0.2,0.1-0.4-0.1-0.4-0.3c0-0.3,0.2-0.5,0.3-0.7c1.5-2,3.4-3.3,5.9-3.5
			c1-0.1,2,0.1,2.8,0.6c3.1,1.8,3.9,3.5,3.8,7.2c0,1.1-0.3,2.2-0.8,3.2c-0.4,0.7-0.9,1.3-2,1.6c-0.1,0-0.2,0-0.2,0
			c-1.6-1-1.9-2.5-2.1-4c-0.2-1.9,0-3.8,0.9-5.5c0.2-0.4-0.1-0.5-0.3-0.6c-1.3-0.6-2.6-0.5-3.8,0C41.9,56.5,41.2,56.9,40.5,57.3z"/>
		<path class="st1" d="M73.1,70.9c-1.3,0.1-2.5-0.3-3.6-1c0,0,0,0-0.1-0.1S69,69.5,69,69.2c0.1-0.3,0.4-0.2,0.6-0.2
			c0.7,0.1,1.4,0.2,2.1,0.2c2,0,3.1-0.9,3.4-2.9c0.3-2.1-0.6-3.1-2.9-3.1c-0.8,0-1.6,0.1-2.5,0.2c-0.3,0-0.5,0.1-0.8,0
			c0-0.1,0-0.1,0-0.2c1.2-1.3,2.2-2.7,3.8-3.5c2.9-1.6,5.7-0.1,6.9,2.4c0.1,0.2,0.3,0.5,0,0.7c-0.2,0.2-0.4-0.1-0.6-0.2
			c-0.6-0.5-1.3-1-2-1.4c-0.9-0.4-1.8-0.5-2.7-0.1c0,0.2,0.2,0.2,0.3,0.3c2.1,0.8,3,2.7,2.5,5c-0.3,1.7-1,3.1-2.7,3.9
			C74.2,70.8,73.7,70.9,73.1,70.9z"/>
		<path class="st1" d="M38.5,77.3c3.2-0.8,6.1-2.2,8.9-3.7c0.2-0.1,0.2-0.3,0.1-0.5c-0.1-0.2-0.3-0.3-0.4-0.5
			c-0.1-0.3,0-0.6,0.4-0.6c1,0,2.3,1.1,2.5,2.2c0,0.2,0.1,0.5-0.2,0.6c-0.2,0.1-0.4,0-0.6-0.1c-0.9-0.6-0.9-0.6-1.7,0.1
			c-3.3,2.6-6.9,4.3-11,4.9c-5.1,0.7-9.2-1-12.2-5.3c0,0-0.1,0-0.1-0.1c-0.1,0-0.2,0.1-0.3,0.2c-0.2,0.2-0.3,0.5-0.6,0.3
			c-0.3-0.1-0.2-0.4-0.2-0.7c0.1-0.7,1.2-1.7,1.9-1.7c0.4,0,0.5,0.2,0.3,0.5c-0.1,0.2-0.3,0.4-0.4,0.6c-0.1,0.1-0.1,0.3,0,0.5
			c1.2,1,2.4,1.9,3.7,2.6C31.8,78.3,35.1,78.2,38.5,77.3z"/>
		<path class="st1" d="M50.6,48.7L50.6,48.7C48.4,47,46,47,43.5,47.6c-0.7,0.2-1.4,0.4-2.1,0.5c-0.3,0-0.5,0.1-0.7-0.2
			c-0.1-0.2-0.1-0.5,0.1-0.7c0.3-0.6,0.8-1,1.3-1.4C46,42.9,51.2,43.9,54,48c0.6,1,1.1,2,1.3,3.2c0.1,0.4,0.1,0.8-0.2,1
			c-0.4,0.2-0.7-0.1-0.9-0.3c-0.8-0.7-1.5-1.4-2.2-2.1C51.5,49.4,51,49,50.6,48.7z"/>
		<path class="st1" d="M86,45.7c0.8-3.2,1.3-6.3,1-9.5c-0.2-2.5-0.8-4.9-1.8-7.3c-1.3-3-3.5-5.5-5.7-7.8c-2.1-2.1-3.5-4.5-4.3-7.4
			c-0.9-3.8-3.2-6.6-6.3-8.8c-2.8-2-6-3.3-9.4-4.1c-3.1-0.7-6.3-1-9.5-1c-2.9,0-5.6,0.4-8.3,1.6c-2.8,1.2-5.4,2.7-7.9,4.5
			c-0.6,0.4-1.2,0.8-2.1,0.7C28,6.5,24.3,6.9,20.9,8.3c-3.7,1.4-6.7,3.7-8.6,7.3c-2.8,5-3.9,10.4-3.1,16.1c0.5,3.3,1.6,6.4,4.2,8.8
			c0.2,0.2,0.3,0.4,0.3,0.7c-0.5,3.3-0.5,6.6,0.1,10S14.3,58,13,61.3c-1,2.7-1.8,5.4-2.3,8.2c-0.5,3.2-0.2,6.4,1,9.4
			c2.8,6.6,7.5,11.5,13.9,14.7c4.9,2.5,10.1,2.9,15.4,2c6.7-1.2,12.8-3.9,18.3-8c3.7-2.8,6.6-6.1,8.4-10.4c0.2-0.4,0.4-0.5,0.8-0.5
			c1.6,0,3.1,0,4.7-0.3c6.3-1.2,11.2-6.2,12-12.4c0.4-3.2-0.2-6.1-2.5-8.5c-0.4-0.5-0.5-0.9-0.2-1.4C84.1,51.5,85.2,48.7,86,45.7z
			 M12.6,24.2c-0.2,0.3-0.7,0.1-0.6-0.2c0-0.1,0-0.1,0-0.2c0.6-3,1.7-5.8,3.4-8.4c2-2.9,4.9-4.4,8.2-5.3c2.4-0.7,5-1,7.5-0.7
			c1.8,0.2,3.1-0.3,4.5-1.4c1.5-1.2,3.1-2.1,4.8-2.9c2.8-1.4,5.8-2.4,9-2.4c4.6,0,9,0.4,13.3,2.1c3,1.2,5.6,2.9,7.7,5.4
			c1.1,1.3,1.8,2.8,2.2,4.4c0.8,3.3,2.5,6.1,4.9,8.5c1.8,1.8,3.4,3.7,4.6,5.9c1.3,2.4,2.1,4.9,2.2,7.7c0,0.5,0.1,1.1,0.1,1.6
			c0,0.4-0.5,0.4-0.6,0.1v-0.1c-0.4-1-0.9-1.8-1.7-2.5c-0.3-0.3-0.6-0.3-0.9,0.1c-2.2,2.5-5.1,3.7-8.3,4.4c-1.7,0.4-3.4,0.5-5.1,0.6
			c-1.4,0.1-2.7-0.1-4.1-0.4l0,0c-0.3-0.1-0.3-0.5,0-0.6s0.6-0.2,0.9-0.3c3.3-1.2,6.6-2.5,9.5-4.5c1.4-1,2.7-2.1,3.7-3.6
			c0.3-0.5,0.3-0.8-0.3-1.2c-2.2-1.3-4.2-2.9-5.6-5.2c-0.8-1.4-1.4-2.9-1.7-4.5c-1.1-5.5-4.7-8.9-9.5-11.2C57.5,7.9,54,7.5,50.5,7.8
			C49,7.7,47.5,8,46,8.3c-0.2,0-0.4,0.1-0.7,0.2c0.7,0.3,1.3,0.3,1.9,0.4c5.4,1,9.9,3.5,13.2,7.9c0.1,0.1,0.2,0.2,0.3,0.4
			c0.3,0.4,0.1,0.7-0.3,0.7c-2.9,0.3-5.8,0.6-8.7-0.1c-0.1,0-0.3-0.1-0.4-0.1c-0.1,0-0.1-0.1-0.2-0.1c0-0.3,0.2-0.2,0.3-0.2
			c0.4-0.1,0.8-0.1,1.1-0.2c0.6-0.2,1.2-0.2,1.4-0.9c0.2-0.7-0.2-1.3-0.7-1.8c-1.3-1.3-3-1.8-4.7-2.1c-3.2-0.5-6.2,0-9.2,1.3
			c-2.5,1.1-5.2,2-7.9,2.4c-1.3,0.2-2.7,0.3-4-0.1c-1.2-0.3-2.3-0.7-3.3-2.8c-0.1-0.2-0.3-0.3-0.5-0.1c-0.1,0.1-0.1,0.1-0.2,0.2
			c-1.9,1.5-2.4,3.7-2.3,6.1c0,0.2-0.1,0.3-0.3,0.3c-2.3,0.5-3.8,1.8-4.5,3.9c0,0,0,0,0,0.1c-0.1,0.3-0.5,0.3-0.6,0
			c-0.2-0.7-0.1-1.3,0-2.1c0-0.3-0.3-0.5-0.5-0.3C14.1,22.1,13.3,23.1,12.6,24.2z M82.5,60.2c0.8,2.8,0.1,5.4-1.3,7.8
			c-2.2,3.6-5.4,5.6-9.6,6c-1.4,0.2-2.8,0.1-4.2,0.1c-1.1,0-1.4,0.2-1.7,1.2c-1.2,3.5-3.3,6.3-6,8.7c-5.6,4.9-12.2,7.9-19.5,9.1
			c-4.3,0.7-8.4,0.3-12.4-1.4c-0.4-0.2-0.7-0.4-1.1-0.5c-5.6-3-9.7-7.2-12.3-12.8c-1.5-3.3-1.5-6.8-0.8-10.3c0.6-3,1.9-5.8,2.7-8.8
			v-0.1c0-0.9,0.3-1.4,0.9-1.8c1.6-1.1,3.3-2.1,5.3-2c0.6,0,1.2,0.1,1.8,0.4c0.2,0.1,0.2,0.3,0.1,0.5c-0.6,0.9-0.9,1.9-1.1,3
			c-0.2,1.8-0.1,3.6,0.7,5.3c0.4,0.7,0.8,1.3,1.7,1.3c0.9,0,1.4-0.5,1.7-1.2c1.3-2.8,1.3-5.7-0.3-8.4c-1.8-3-6.2-3.6-9.2-1.4
			c-0.2,0.2-0.5,0.4-0.7,0.5c-0.2,0.2-0.5,0-0.5-0.2c-0.1-0.5-0.1-1-0.1-1.4c0-1.6-0.4-3.2-0.6-4.8c0-0.1,0-0.2,0-0.3
			c-0.1-0.7,0.1-1.2,0.8-1.5c1.1-0.5,2.1-1.1,3.3-1.5c1.6-0.6,3.2-0.5,4.7,0.4c0.8,0.5,1.6,1,2.4,1.5c0.4,0.2,0.9,0.6,1.3,0.3
			c0.4-0.4,0.2-0.9,0-1.3c-1.3-3.6-5.7-5.4-9.3-3.7c-1,0.5-1.9,1.1-2.7,2c-0.1,0.1-0.2,0.3-0.4,0.3c-0.2-0.1-0.2-0.3-0.2-0.5
			c0.3-4.6,1.5-9,4.2-12.8c1.5-2,3.4-3.4,5.9-3.9c1.9-0.4,3.5,0.3,4.8,2.3c0.1,0.2,0.4,0.2,0.6,0c0.9-1.8,2.2-3.1,3.8-4.1
			c1.8-1.3,3.6-1.4,5.7-0.8c4.1,1.2,6.4,3.9,7.1,7.9c0.8,4.1,3.1,6.8,6.6,8.7c2.4,1.4,5.1,2.2,7.6,3.3l0,0c0.9,0.5,2.1,0.9,2.8,1.8
			c0.3,0.4,0.5,0.8,0.3,1.3c-1.1,3.9-2.2,7.8-3.3,11.7c-0.2,0.8-0.1,1.4,0.4,1.7c0.5,0.4,1.1,0.3,1.8-0.2c3-2.2,6.1-4.1,9.6-5.4
			c0.7-0.3,1.4-0.4,2.2-0.5C79.4,55,81.9,57.8,82.5,60.2z"/>
	</g>
</g>
</svg>
